<?xml version="1.0" encoding="UTF-8"?>
<svg width="160px" height="40px" viewBox="0 0 160 40" version="1.1" xmlns="http://www.w3.org/2000/svg" xmlns:xlink="http://www.w3.org/1999/xlink">
    <!-- Generator: Sketch 48.1 (47250) - http://www.bohemiancoding.com/sketch -->
    <title>Logo</title>
    <desc>Created with Sketch.</desc>
    <defs></defs>
    <g id="Active-Links-/-Hover-/-Footer" stroke="none" stroke-width="1" fill="none" fill-rule="evenodd" transform="translate(-44.000000, -20.000000)">
        <g id="Header---Gray" transform="translate(44.000000, 20.000000)" fill="#7A7977">
            <g id="Logo">
                <g id="Symbol">
                    <path d="M34.0775504,39.9069147 L10.2946047,39.9069147 L10.2946047,28.6821085 L13.5194109,28.6821085 L13.5194109,36.9301705 L34.1085581,36.9301705 C39.4108837,36.9301705 40.9612713,35.6588527 40.9612713,31.2247442 C40.9612713,26.759938 39.4728992,25.5503256 34.1085581,25.5503256 L3.10077519e-05,25.5503256 L3.10077519e-05,22.5735814 L34.0775504,22.5735814 C39.8139845,22.5735814 43.6589457,24.0619535 43.6589457,31.2247442 C43.6589457,36.4650543 42.0155349,39.9069147 34.0775504,39.9069147" id="Fill-1"></path>
                    <path d="M43.6589147,8.65116279 C43.6589147,15.8449612 39.8139535,17.3023256 34.0775194,17.3023256 L0,17.3023256 L0,14.3255814 L34.1085271,14.3255814 C39.4728682,14.3255814 40.9612403,13.0852713 40.9612403,8.65116279 C40.9612403,4.24806202 39.4108527,2.97674419 34.1085271,2.97674419 L13.5193798,2.97674419 L13.5193798,11.2248062 L10.2945736,11.2248062 L10.2945736,-2.84217094e-14 L34.0775194,-2.84217094e-14 C42.0155039,-2.84217094e-14 43.6589147,3.47286822 43.6589147,8.65116279" id="Fill-3"></path>
                </g>
                <g id="Name" transform="translate(61.666667, 10.000000)">
                    <path d="M14.3398354,14.2074562 C14.3398354,18.1859893 12.0214097,19.4167585 7.89976386,19.4167585 L3.80674061,19.4167585 L0.686883721,19.4167585 L0.686883721,0.583127013 L7.55629338,0.583127013 C11.4775814,0.583127013 13.681517,1.7852737 13.681517,5.59207156 C13.681517,7.85325224 12.9087084,9.02677639 11.4489589,9.59922719 C13.3380465,10.2003005 14.3398354,11.5741825 14.3398354,14.2074562 Z M7.58491592,16.897975 C10.2754347,16.897975 11.1054884,16.1824114 11.1054884,13.9784758 C11.1054884,11.7745403 10.2754347,10.915864 7.58491592,10.915864 L3.80674061,10.915864 L3.80674061,16.897975 L7.58491592,16.897975 Z M10.504415,5.79242934 C10.504415,3.64573882 9.73160644,3.04466547 7.24144544,3.04466547 L3.80674061,3.04466547 L3.80674061,8.42570304 L7.2128229,8.42570304 C9.73160644,8.45432558 10.504415,7.93911986 10.504415,5.79242934 Z" id="Fill-5"></path>
                    <polygon id="Fill-7" points="28.8230125 12.8049803 28.8230125 19.3881646 25.7031556 19.3881646 25.7031556 12.8049803 19.6348909 0.554533095 22.9840143 0.554533095 27.2487728 9.57063327 31.5132451 0.554533095 34.8907048 0.554533095"></polygon>
                    <polygon id="Fill-9" points="54.3828837 0.55459034 54.3828837 3.1592415 49.2019177 3.1592415 49.2019177 19.3882218 46.082347 19.3882218 46.082347 3.1592415 40.9302898 3.1592415 40.9302898 0.55459034"></polygon>
                    <path d="M75.8209946,9.97137746 C75.8209946,16.1538462 74.3898676,19.7030411 68.0070411,19.7030411 C61.6242147,19.7030411 60.1930877,16.1538462 60.1930877,9.97137746 C60.1930877,3.78890877 61.6242147,0.239713775 68.0070411,0.239713775 C74.3898676,0.211091234 75.8209946,3.76028623 75.8209946,9.97137746 M63.4274347,9.97137746 C63.4274347,14.980322 64.2577746,16.9552773 68.0070411,16.9552773 C71.7568801,16.9552773 72.5866476,15.0089445 72.5866476,9.97137746 C72.5866476,4.93381038 71.7568801,2.98747764 68.0070411,2.98747764 C64.2577746,2.98747764 63.4274347,4.93381038 63.4274347,9.97137746" id="Fill-11"></path>
                    <polygon id="Fill-13" points="94.3971377 0.55459034 94.3971377 15.1807084 87.09839 0.55459034 83.2057245 0.55459034 83.2057245 19.3882218 86.2110912 19.3882218 86.2110912 5.04832916 93.3667263 19.3882218 97.4025045 19.3882218 97.4025045 0.55459034"></polygon>
                </g>
            </g>
        </g>
    </g>
</svg>